<svg width="30" height="17" viewBox="0 0 30 17" fill="none" xmlns="http://www.w3.org/2000/svg">
<path d="M8.5 0C7.38376 -1.66332e-08 6.27846 0.219859 5.24719 0.647024C4.21592 1.07419 3.27889 1.70029 2.48959 2.48959C1.70029 3.27889 1.07419 4.21592 0.647024 5.24719C0.219859 6.27846 0 7.38376 0 8.5C0 9.61624 0.219859 10.7215 0.647024 11.7528C1.07419 12.7841 1.70029 13.7211 2.48959 14.5104C3.27889 15.2997 4.21592 15.9258 5.24719 16.353C6.27846 16.7801 7.38376 17 8.5 17C9.61624 17 10.7215 16.7801 11.7528 16.353C12.7841 15.9258 13.7211 15.2997 14.5104 14.5104C15.2997 13.7211 15.9258 12.7841 16.353 11.7528C16.7801 10.7215 17 9.61624 17 8.5C17 7.38376 16.7801 6.27846 16.353 5.24719C15.9258 4.21592 15.2997 3.27889 14.5104 2.48959C13.7211 1.70029 12.7841 1.07419 11.7528 0.647024C10.7215 0.219859 9.61624 -1.66332e-08 8.5 0ZM22 1C21.4747 1 20.9546 1.19399 20.4693 1.5709C19.984 1.94781 19.543 2.50026 19.1716 3.1967C18.8001 3.89314 18.5055 4.71993 18.3045 5.62987C18.1035 6.53982 18 7.51509 18 8.5C18 9.48491 18.1035 10.4602 18.3045 11.3701C18.5055 12.2801 18.8001 13.1069 19.1716 13.8033C19.543 14.4997 19.984 15.0522 20.4693 15.4291C20.9546 15.806 21.4747 16 22 16C22.5253 16 23.0454 15.806 23.5307 15.4291C24.016 15.0522 24.457 14.4997 24.8284 13.8033C25.1999 13.1069 25.4945 12.2801 25.6955 11.3701C25.8965 10.4602 26 9.48491 26 8.5C26 7.51509 25.8965 6.53982 25.6955 5.62987C25.4945 4.71993 25.1999 3.89314 24.8284 3.1967C24.457 2.50026 24.016 1.94781 23.5307 1.5709C23.0454 1.19399 22.5253 1 22 1ZM28.5 2C28.1022 2 27.7206 2.68482 27.4393 3.90381C27.158 5.12279 27 6.77609 27 8.5C27 10.2239 27.158 11.8772 27.4393 13.0962C27.7206 14.3152 28.1022 15 28.5 15C28.8978 15 29.2794 14.3152 29.5607 13.0962C29.842 11.8772 30 10.2239 30 8.5C30 6.77609 29.842 5.12279 29.5607 3.90381C29.2794 2.68482 28.8978 2 28.5 2Z" fill="white"/>
</svg>
