<svg width="24" height="24" viewBox="0 0 24 24" fill="none" xmlns="http://www.w3.org/2000/svg">
<path d="M7 0.75C3.54875 0.75 0.75 3.54875 0.75 7V17C0.75 20.4513 3.54875 23.25 7 23.25H17C20.4513 23.25 23.25 20.4513 23.25 17V7C23.25 3.54875 20.4513 0.75 17 0.75H7ZM19.5 3.25C20.19 3.25 20.75 3.81 20.75 4.5C20.75 5.19 20.19 5.75 19.5 5.75C18.81 5.75 18.25 5.19 18.25 4.5C18.25 3.81 18.81 3.25 19.5 3.25ZM12 5.75C15.4513 5.75 18.25 8.54875 18.25 12C18.25 15.4513 15.4513 18.25 12 18.25C8.54875 18.25 5.75 15.4513 5.75 12C5.75 8.54875 8.54875 5.75 12 5.75ZM12 8.25C11.0054 8.25 10.0516 8.64509 9.34835 9.34835C8.64509 10.0516 8.25 11.0054 8.25 12C8.25 12.9946 8.64509 13.9484 9.34835 14.6517C10.0516 15.3549 11.0054 15.75 12 15.75C12.9946 15.75 13.9484 15.3549 14.6517 14.6517C15.3549 13.9484 15.75 12.9946 15.75 12C15.75 11.0054 15.3549 10.0516 14.6517 9.34835C13.9484 8.64509 12.9946 8.25 12 8.25Z" fill="white"/>
</svg>
